<svg xmlns="http://www.w3.org/2000/svg" width="163" height="79" fill="none" viewBox="0 0 163 79"><path fill="#FFE29D" d="M21.3923 25.044L42.7401 37.3659L65.318 24.3286C66.8063 23.4771 68.1118 22.3401 69.1597 20.9829C70.2075 19.6257 70.977 18.0749 71.424 16.4195C71.8711 14.7642 71.9869 13.0369 71.7647 11.3367C71.5426 9.63646 70.9869 7.99685 70.1296 6.51193C69.2722 5.027 68.1301 3.72598 66.7688 2.68351C65.4074 1.64104 63.8536 0.877655 62.1965 0.437145C60.5394 -0.00336614 58.8116 -0.112327 57.1123 0.116514C55.413 0.345355 53.7756 0.907493 52.2941 1.77067L15.5221 22.9981C17.5903 23.3039 19.582 23.998 21.3923 25.044Z"/><path fill="#F0C0ED" d="M65.318 54.5886L19.5804 28.1796C18.0989 27.3164 16.4615 26.7543 14.7622 26.5255C13.0629 26.2966 11.3351 26.4056 9.67799 26.8461C8.02089 27.2866 6.46707 28.05 5.10571 29.0925C3.74435 30.1349 2.60225 31.4359 1.74491 32.9209C0.887582 34.4058 0.331899 36.0454 0.10976 37.7456C-0.112379 39.4458 0.00339532 41.1731 0.450437 42.8285C0.897478 44.4838 1.66699 46.0346 2.71481 47.3918C3.76264 48.7491 5.06816 49.8861 6.55646 50.7375L52.2941 77.1465C55.2845 78.8573 58.831 79.3136 62.1572 78.4154C65.4833 77.5171 68.318 75.3375 70.0406 72.3539C71.7633 69.3702 72.2335 65.8255 71.3484 62.4959C70.4633 59.1662 68.2949 56.323 65.318 54.5886Z"/><path fill="#F0C0ED" d="M156.532 28.1796L110.795 1.77067C109.313 0.907493 107.676 0.345355 105.977 0.116514C104.277 -0.112327 102.55 -0.00336614 100.892 0.437145C99.2353 0.877655 97.6815 1.64104 96.3201 2.68351C94.9588 3.72598 93.8167 5.027 92.9593 6.51193C92.102 7.99685 91.5463 9.63646 91.3242 11.3367C91.1021 13.0369 91.2178 14.7642 91.6649 16.4195C92.1119 18.0749 92.8814 19.6257 93.9292 20.9829C94.9771 22.3401 96.2826 23.4771 97.7709 24.3286L143.508 50.7375C146.499 52.4484 150.045 52.9047 153.372 52.0064C156.698 51.1082 159.532 48.9286 161.255 45.9449C162.978 42.9612 163.448 39.4165 162.563 36.0869C161.678 32.7573 159.509 29.914 156.532 28.1796Z"/><path fill="#78BFC2" d="M141.69 53.8732L120.349 41.5513L97.7709 54.5886C96.2826 55.44 94.9771 56.577 93.9292 57.9343C92.8814 59.2915 92.1119 60.8423 91.6649 62.4976C91.2178 64.153 91.1021 65.8803 91.3242 67.5805C91.5463 69.2807 92.102 70.9203 92.9593 72.4052C93.8167 73.8902 94.9588 75.1912 96.3201 76.2337C97.6815 77.2761 99.2353 78.0395 100.892 78.48C102.55 78.9205 104.277 79.0295 105.977 78.8007C107.676 78.5718 109.313 78.0097 110.795 77.1465L147.567 55.919C145.496 55.6141 143.502 54.9199 141.69 53.8732Z"/></svg>